<?xml version="1.0" encoding="UTF-8" standalone="no"?>
<!-- Created with Inkscape (http://www.inkscape.org/) -->

<svg
   width="26.03521mm"
   height="33.06691mm"
   viewBox="0 0 26.03521 33.06691"
   version="1.1"
   id="svg5"
   xml:space="preserve"
   xmlns:inkscape="http://www.inkscape.org/namespaces/inkscape"
   xmlns:sodipodi="http://sodipodi.sourceforge.net/DTD/sodipodi-0.dtd"
   xmlns="http://www.w3.org/2000/svg"
   xmlns:svg="http://www.w3.org/2000/svg"><sodipodi:namedview
     id="namedview7"
     pagecolor="#ffffff"
     bordercolor="#000000"
     borderopacity="0.25"
     inkscape:showpageshadow="2"
     inkscape:pageopacity="0.0"
     inkscape:pagecheckerboard="0"
     inkscape:deskcolor="#d1d1d1"
     inkscape:document-units="mm"
     showgrid="false" /><defs
     id="defs2" /><g
     inkscape:label="Layer 1"
     inkscape:groupmode="layer"
     id="layer1"
     transform="translate(-98.793658,-161.3923)"><path
       d="m 99.927765,194.31096 c -1.177714,-0.48234 -1.133899,0.15308 -1.133899,-16.44396 v -15.28694 l 0.510841,-0.59388 0.510838,-0.59389 h 11.995815 11.99582 l 0.51084,0.59389 0.51084,0.59388 v 15.32223 15.32222 l -0.51074,0.59389 -0.51074,0.59389 -11.71301,0.0422 c -6.44215,0.0232 -11.91712,-0.0414 -12.166605,-0.14356 z m 16.679265,-4.43588 c 1.44517,-0.54628 2.83557,-1.93994 3.04404,-3.05119 0.20256,-1.07978 -0.38454,-2.65444 -1.33502,-3.5806 -1.22249,-1.19123 -2.11575,-1.46699 -5.34052,-1.64869 -3.20324,-0.18049 -4.62442,-0.47027 -5.27393,-1.07538 -0.53809,-0.50131 -0.55526,-0.84699 -0.0707,-1.42218 l 0.37041,-0.43965 1.27,0.43881 c 1.53345,0.52983 3.13898,0.45122 4.68068,-0.22916 3.67781,-1.62311 4.6278,-6.3789 1.84639,-9.24326 -0.70948,-0.73064 -0.82597,-0.95345 -0.59759,-1.14299 0.32939,-0.27337 1.56182,-0.32193 2.81161,-0.11078 1.0069,0.17012 1.07697,0.0491 1.1601,-2.00355 l 0.0472,-1.16417 -0.84667,0.0616 c -1.82018,0.13253 -3.3731,1.06226 -3.90034,2.33512 l -0.24834,0.59955 -1.20649,-0.41008 c -0.8976,-0.30508 -1.53165,-0.37991 -2.47649,-0.29226 -3.33249,0.30913 -5.25423,1.90056 -5.84455,4.83999 -0.33166,1.65143 0.12771,3.15423 1.39501,4.56378 l 0.95017,1.05681 -0.97346,0.75842 c -1.86814,1.45545 -2.53236,2.8942 -1.90036,4.11635 0.18248,0.35288 0.43498,0.67599 0.56111,0.71804 0.1634,0.0545 0.16468,0.24647 0.004,0.6679 -0.77091,2.02765 0.15729,4.01023 2.41717,5.16293 2.2944,1.1703 7.01532,1.41722 9.45612,0.49459 z m -7.12842,-2.07956 c -1.44567,-0.51172 -2.4197,-1.245 -2.77119,-2.08623 -0.53277,-1.27509 -0.46195,-1.35184 1.24103,-1.34499 3.45579,0.0139 6.95751,0.3917 7.91164,0.85359 1.45191,0.70286 1.52524,1.82525 0.16508,2.5269 -0.96678,0.49872 -5.18852,0.53144 -6.54656,0.0507 z m 1.16051,-9.68752 c -2.01236,-1.48468 -3.38681,-5.3346 -2.7491,-7.70041 0.66781,-2.47744 2.90909,-2.86699 4.78281,-0.83128 1.39555,1.51621 2.0227,3.17764 2.03134,5.38139 0.006,1.63811 -0.52138,3.05421 -1.29208,3.46668 -0.7448,0.3986 -1.99761,0.25566 -2.77297,-0.31638 z"
       style="fill:#000000;stroke-width:0.211667"
       id="path289" /></g></svg>
