<?xml version="1.0" encoding="UTF-8" standalone="no"?>
<!-- Created with Inkscape (http://www.inkscape.org/) -->

<svg
   width="28.36335mm"
   height="31.326675mm"
   viewBox="0 0 28.36335 31.326675"
   version="1.1"
   id="svg5"
   xml:space="preserve"
   xmlns="http://www.w3.org/2000/svg"
   xmlns:svg="http://www.w3.org/2000/svg"><defs
     id="defs2" /><g
     id="layer1"
     transform="translate(-118.2311,-144.13929)"><path
       style="fill:#000000;stroke-width:0.211667"
       d="m 118.78882,175.02727 -0.55772,-0.4387 v -14.70509 -14.70509 l 0.51955,-0.51954 0.51954,-0.51955 h 12.9318 c 13.67004,0 13.89771,0.0154 14.26096,0.96198 0.0723,0.18846 0.13149,6.86381 0.13149,14.83412 v 14.49148 l -0.51955,0.51954 -0.51954,0.51955 h -13.10441 c -12.93688,0 -13.11154,-0.006 -13.66212,-0.4387 z m 20.91297,-4.35702 c 1.17158,-0.65856 2.3933,-1.38028 2.71492,-1.60383 l 0.58477,-0.40644 -0.0556,-7.42193 c -0.0483,-6.45063 -0.0988,-7.44914 -0.38546,-7.62992 -0.25029,-0.15782 -0.96502,0.1614 -2.96333,1.32352 -1.44841,0.84233 -2.70346,1.63995 -2.78899,1.7725 -0.0855,0.13254 -0.15697,1.50931 -0.15875,3.05948 -0.003,2.62633 0.16948,3.63734 0.62061,3.63734 0.1021,0 0.86074,-0.38924 1.68589,-0.86497 l 1.50026,-0.86496 v -1.86406 c 0,-1.52623 -0.0624,-1.888 -0.34433,-1.99618 -0.6367,-0.24433 -0.92567,0.27884 -0.92567,1.67591 0,1.18037 -0.058,1.36355 -0.52917,1.67229 l -0.52916,0.34673 v -2.10303 -2.10302 l 1.68347,-0.97102 c 0.92591,-0.53407 1.73553,-0.97103 1.79916,-0.97103 0.0636,0 0.1157,2.83721 0.1157,6.3049 v 6.30488 l -2.15688,1.23581 -2.15688,1.23581 -0.9039,-0.49378 -0.9039,-0.49378 -0.0613,-1.49067 c -0.0589,-1.43259 -0.0819,-1.49067 -0.59047,-1.49067 -0.52513,0 -0.52917,0.0145 -0.52917,1.89936 v 1.89935 l 1.37489,0.7994 c 0.75619,0.43967 1.4645,0.79939 1.57402,0.79939 0.10952,0 1.1577,-0.53882 2.32928,-1.19738 z m 0.709,-5.10385 c 0.0742,-2.33403 -0.0989,-2.47729 -1.81063,-1.49795 l -1.17453,0.672 -0.91893,-0.48749 -0.91893,-0.48749 v -3.9397 -3.9397 l 0.9406,-0.49898 c 0.51733,-0.27444 1.10628,-0.68206 1.30877,-0.90581 0.34697,-0.38339 0.34738,-0.42761 0.007,-0.76779 -0.34018,-0.34019 -0.41251,-0.33362 -1.25585,0.11402 -0.49219,0.26124 -1.20627,0.66448 -1.58685,0.89608 l -0.69197,0.42108 0.057,4.70729 0.057,4.70729 1.44414,0.83139 1.44414,0.8314 0.93711,-0.45529 0.93711,-0.45528 v 0.63044 c 0,0.54215 -0.16037,0.72095 -1.14516,1.27673 -1.28414,0.72472 -1.53023,1.0967 -1.04593,1.581 0.30013,0.30012 0.47168,0.2536 1.84309,-0.49984 l 1.51217,-0.83076 z m -12.64424,-0.94844 2.63539,-1.53467 0.0584,-3.21746 c 0.0747,-4.11655 0.0857,-4.10637 -2.68898,-2.4839 -1.08235,0.63288 -2.0048,1.1507 -2.0499,1.1507 -0.0451,0 -0.082,-1.57788 -0.082,-3.50641 0,-1.9649 -0.0943,-3.68271 -0.21461,-3.90742 -0.23905,-0.44666 -2.5964,-1.8995 -3.08211,-1.8995 -0.71779,0 -0.7798,0.85779 -0.59153,8.18312 l 0.18408,7.16271 h 0.52917 0.52916 l 0.0559,-6.72041 c 0.0307,-3.69623 0.10844,-6.72042 0.17267,-6.72042 0.0642,0 0.30101,0.0986 0.52619,0.21911 0.38316,0.20507 0.40942,0.48223 0.40942,4.32186 0,2.25651 0.0578,4.25341 0.12848,4.43755 0.21312,0.5554 0.78811,0.38985 2.86393,-0.82458 l 1.98176,-1.1594 0.0611,2.04601 c 0.0529,1.77124 0.0108,2.07617 -0.31334,2.27064 -0.20592,0.12356 -1.01921,0.58911 -1.80731,1.03456 l -1.43292,0.80991 v -0.63563 c 0,-0.54861 0.15937,-0.72681 1.16417,-1.3017 1.19789,-0.68536 1.53145,-1.35401 0.81299,-1.62971 -0.41937,-0.16093 -2.97621,1.14666 -3.26299,1.66872 -0.10771,0.19607 -0.19583,1.01046 -0.19583,1.80975 0,1.39741 0.21294,1.96124 0.7407,1.96124 0.12798,0 1.41862,-0.6906 2.86808,-1.53467 z m 3.33853,0.97034 c 2.05739,-1.17257 1.94269,-0.83073 1.94269,-5.78976 0,-4.95992 0.1476,-4.53018 -1.96049,-5.70786 -1.31258,-0.73327 -1.92125,-0.71949 -1.81144,0.041 0.0448,0.31004 0.44486,0.68417 1.17901,1.10248 l 1.11125,0.63318 v 3.95827 3.95826 l -1.16416,0.65701 c -0.74576,0.42089 -1.16417,0.79584 -1.16417,1.04326 0,0.84404 0.51835,0.87294 1.86731,0.10414 z m -3.18492,-12.81114 0.0582,-3.32131 -1.47099,-0.85911 c -1.62747,-0.95049 -1.76741,-0.98809 -2.1157,-0.56843 -0.38439,0.46316 -0.0914,0.85108 1.14771,1.51946 l 1.15688,0.62403 6.4e-4,2.87514 c 4.2e-4,1.58133 0.0683,2.94266 0.15078,3.02518 0.0825,0.0825 0.34446,0.12221 0.58208,0.0882 0.41108,-0.0588 0.43487,-0.22303 0.49027,-3.38315 z"
       id="path1128" /></g></svg>
