<?xml version="1.0" encoding="UTF-8" standalone="no"?>
<!-- Created with Inkscape (http://www.inkscape.org/) -->

<svg
   width="19.261669mm"
   height="35.136665mm"
   viewBox="0 0 19.261669 35.136665"
   version="1.1"
   id="svg5"
   xml:space="preserve"
   xmlns="http://www.w3.org/2000/svg"
   xmlns:svg="http://www.w3.org/2000/svg"><defs
     id="defs2" /><g
     id="layer1"
     transform="translate(-28.540623,-79.565191)"><path
       style="fill:#000000;stroke-width:0.211667"
       d="m 28.89093,114.31478 c -0.319788,-0.35336 -0.350306,-1.85514 -0.350306,-17.238839 v -16.85174 l 0.470431,-0.32951 c 0.407329,-0.2853 1.642345,-0.3295 9.2075,-0.3295 8.454848,0 8.750743,0.0137 9.160403,0.42334 0.416219,0.41621 0.423333,0.70555 0.423333,17.21802 0,16.001619 -0.01829,16.811239 -0.387083,17.145009 -0.347256,0.31426 -1.302121,0.3503 -9.280528,0.3503 -8.347009,0 -8.914968,-0.0238 -9.24375,-0.38708 z m 12.054991,-4.79768 c 1.966546,-1.13109 3.742224,-2.24754 3.945953,-2.481 0.343377,-0.39349 0.370417,-1.29542 0.370417,-12.355309 v -11.93084 l -0.511969,-0.33545 c -0.473606,-0.31032 -0.573187,-0.30423 -1.328949,0.0813 -1.515097,0.77295 -7.575065,4.31035 -7.948666,4.6399 -0.333226,0.29394 -0.370416,0.83195 -0.370416,5.35882 0,6.51587 -0.03508,6.46623 3.255715,4.60659 3.023097,-1.70837 2.882618,-1.48461 2.882618,-4.59159 0,-2.16434 -0.06368,-2.71555 -0.350306,-3.03227 -0.443702,-0.49029 -0.969404,-0.49355 -1.408153,-0.009 -0.259558,0.28681 -0.35712,0.91331 -0.403223,2.58932 l -0.06082,2.21095 -0.899583,0.49572 -0.899584,0.49571 v -3.38572 -3.38572 l 2.963334,-1.69735 2.963333,-1.69734 v 10.33901 10.339019 l -3.501455,2.01481 -3.501456,2.01481 -1.472711,-0.84908 -1.472711,-0.84908 v -2.18909 c 0,-2.36173 -0.196205,-2.85431 -1.136953,-2.85431 -0.875157,0 -0.979714,0.35116 -0.979714,3.29036 0,3.15159 -0.117551,2.90797 2.010833,4.16727 2.703335,1.59947 2.848466,1.6535 3.599166,1.33983 0.373869,-0.15621 2.288753,-1.20946 4.255298,-2.34055 z m -2.49866,-3.18605 c 1.128893,-0.64578 2.219217,-1.37071 2.422947,-1.61095 0.53231,-0.62771 0.548312,-5.345829 0.02011,-5.929489 -0.513275,-0.56716 -0.810159,-0.49705 -2.880934,0.68033 l -1.87736,1.067409 -1.41445,-0.812449 -1.41445,-0.81246 -0.05598,-6.36521 -0.05598,-6.36522 1.886268,-1.08863 c 2.294049,-1.32397 2.689574,-1.98533 1.610262,-2.69252 -0.517336,-0.33898 -0.588067,-0.31636 -2.69875,0.86297 -1.192119,0.66608 -2.334177,1.35917 -2.537907,1.54019 -0.339327,0.30149 -0.370416,0.94507 -0.370416,7.66775 v 7.33863 l 0.47625,0.427839 c 0.597564,0.53683 4.246793,2.60929 4.594479,2.60929 0.141893,0 0.868777,-0.34158 1.615298,-0.75905 l 1.357309,-0.75905 v 1.05521 1.05522 l -1.957917,1.13621 c -1.463434,0.84924 -1.975576,1.25997 -2.027843,1.62628 -0.07636,0.53516 0.489375,1.30184 0.960619,1.30184 0.162755,0 1.219554,-0.52836 2.348445,-1.17414 z"
       id="path1163" /></g></svg>
