<?xml version="1.0" encoding="UTF-8" standalone="no"?>
<!-- Created with Inkscape (http://www.inkscape.org/) -->

<svg
   width="39.220604mm"
   height="4.8547516mm"
   viewBox="0 0 39.220604 4.8547516"
   version="1.1"
   id="svg5"
   xml:space="preserve"
   inkscape:export-filename="logo1.svg"
   inkscape:export-xdpi="96"
   inkscape:export-ydpi="96"
   xmlns:inkscape="http://www.inkscape.org/namespaces/inkscape"
   xmlns:sodipodi="http://sodipodi.sourceforge.net/DTD/sodipodi-0.dtd"
   xmlns="http://www.w3.org/2000/svg"
   xmlns:svg="http://www.w3.org/2000/svg"><sodipodi:namedview
     id="namedview7"
     pagecolor="#ffffff"
     bordercolor="#000000"
     borderopacity="0.25"
     inkscape:showpageshadow="2"
     inkscape:pageopacity="0.0"
     inkscape:pagecheckerboard="0"
     inkscape:deskcolor="#d1d1d1"
     inkscape:document-units="mm"
     showgrid="false" /><defs
     id="defs2" /><g
     inkscape:label="Layer 1"
     inkscape:groupmode="layer"
     id="layer1"
     transform="translate(-75.915407,-179.87359)"><path
       d="m 93.772407,184.40717 c 0.40908,-0.49292 -0.0142,-1.02603 -0.88189,-1.11081 -0.39525,-0.0386 -0.82304,-0.15684 -0.95063,-0.26274 -0.32264,-0.26777 -0.51054,-0.0193 -0.51054,0.67522 0,0.33784 0.15802,0.68124 0.37041,0.80495 0.56419,0.32861 1.66062,0.26935 1.97265,-0.10662 z m -1.77862,-0.22921 c -0.26471,-0.26471 -0.14179,-0.49389 0.26491,-0.49389 0.55301,0 1.07565,0.2167 1.07565,0.44598 0,0.2183 -1.12979,0.25868 -1.34056,0.0479 z m -13.502575,-1.01808 c 0.8291,-0.81095 -0.11339,-2.37942 -1.28855,-2.14438 -0.53977,0.10795 -0.58999,0.0644 -0.58999,-0.51171 0,-0.45842 -0.10076,-0.62984 -0.37042,-0.6302 -0.32894,-4.2e-4 -0.36279,0.19962 -0.3023,1.78657 0.0668,1.75351 0.0788,1.78877 0.635,1.87752 0.76961,0.12279 1.56475,-0.034 1.91626,-0.3778 z m -1.46001,-0.11561 c -0.48459,-0.48458 -0.54847,-1.31718 -0.12786,-1.66626 0.3966,-0.32915 0.87219,-0.10827 1.16887,0.54286 0.48499,1.06444 -0.27733,1.88708 -1.04101,1.1234 z m 6.07187,0.0992 c 0.40215,-0.54998 0.35016,-1.29713 -0.1232,-1.77049 -0.61144,-0.61143 -2.82526,-0.58949 -3.4059,0.0337 -0.57773,0.62013 -0.52804,1.31604 0.13097,1.83442 0.72889,0.57334 2.95424,0.50938 3.39813,-0.0977 z m -2.7708,-0.003 c -0.47768,-0.47768 -0.63799,-1.31095 -0.3248,-1.68833 0.42986,-0.51795 0.73387,-0.23285 0.66045,0.61938 -0.0373,0.43309 0.0468,0.92555 0.18687,1.09434 0.35095,0.42287 -0.096,0.40115 -0.52252,-0.0254 z m 1.50896,0.19865 c -0.0735,-0.0735 -0.032,-0.32369 0.0923,-0.55594 0.16214,-0.30296 0.15779,-0.57197 -0.0154,-0.95202 -0.31328,-0.68759 -0.12805,-0.85567 0.40819,-0.37039 0.4715,0.42672 0.56267,1.36597 0.17063,1.75801 -0.28489,0.28488 -0.45923,0.31689 -0.65578,0.12034 z m -0.67773,-0.92467 c -0.0795,-0.25038 -0.0969,-0.50286 -0.0387,-0.56106 0.0582,-0.0582 0.17085,0.099 0.25032,0.3494 0.0795,0.25038 0.0969,0.50286 0.0386,0.56107 -0.0582,0.0582 -0.17085,-0.099 -0.25032,-0.34941 z m 3.55733,0.52917 c -0.0661,-0.40746 -0.0438,-0.74083 0.0496,-0.74083 0.33234,0 0.94395,0.70698 0.94395,1.09114 0,0.27545 0.15592,0.39052 0.52916,0.39052 0.29104,0 0.52917,-0.0479 0.52917,-0.10638 0,-0.0585 -0.38257,-0.45201 -0.85014,-0.87444 l -0.85015,-0.76805 0.65441,-0.48281 c 0.53038,-0.3913 0.58405,-0.49636 0.28317,-0.55431 -0.35355,-0.0681 -0.35359,-0.0891 -8.4e-4,-0.44192 0.20373,-0.20373 0.2635,-0.37042 0.13283,-0.37042 -0.13067,0 -0.3701,0.31715 -0.53206,0.70477 -0.16196,0.38762 -0.44285,0.82791 -0.6242,0.97842 -0.29119,0.2417 -0.32969,0.14705 -0.32969,-0.81061 0,-0.8915 -0.0658,-1.08425 -0.37041,-1.08425 -0.32534,0 -0.37042,0.23183 -0.37042,1.905 0,1.81822 0.0211,1.905 0.46294,1.905 0.41087,0 0.44942,-0.0833 0.34272,-0.74083 z m 3.135945,-0.52614 c -0.0687,-1.27765 -0.14048,-1.48469 -0.514515,-1.48469 -0.1693,0 -0.25209,0.4544 -0.25209,1.38362 0,1.25338 0.039,1.3779 0.41453,1.32292 0.362915,-0.0531 0.406745,-0.20526 0.352075,-1.22185 z m 1.48431,0.0499 c -0.0606,-1.12649 0.12736,-1.37118 0.60826,-0.79172 0.1643,0.19796 0.22208,0.64085 0.15189,1.16416 -0.10609,0.79097 -0.0795,0.84464 0.41839,0.84464 0.39786,0 0.49934,-0.0843 0.4032,-0.33481 -0.0707,-0.18414 -0.12848,-0.59456 -0.12848,-0.91204 0,-0.85733 -0.41351,-1.23178 -1.53427,-1.38935 l -1.00509,-0.1413 0.22261,0.5855 c 0.12243,0.32203 0.16021,0.95487 0.0839,1.40631 -0.1299,0.76884 -0.10773,0.81633 0.35034,0.75033 0.44903,-0.0647 0.48412,-0.16133 0.42921,-1.18173 z m 7.07204,0.69754 c 0.28575,-0.28575 0.51955,-0.67108 0.51955,-0.85629 0,-0.49607 -0.9664,-1.37583 -1.51132,-1.37583 -0.60019,0 -1.45201,0.78973 -1.45201,1.34617 0,0.59416 0.82106,1.40549 1.42235,1.40549 0.27604,0 0.73568,-0.23379 1.02143,-0.51954 z m -1.25473,-0.015 c -0.51383,-0.51383 -0.66162,-1.35363 -0.30158,-1.71367 0.42004,-0.42004 0.92535,-0.17867 1.24586,0.5951 0.41683,1.00633 -0.2576,1.80525 -0.94428,1.11857 z m 3.90826,0.32285 c 0.32859,0 0.40602,-0.15248 0.40602,-0.79957 0,-0.43977 -0.14828,-1.01127 -0.3295,-1.27 -0.3782,-0.53996 -1.18898,-0.61866 -1.5755,-0.15293 -0.21512,0.25919 -0.20273,0.3175 0.0674,0.3175 0.18201,0 0.3898,-0.0952 0.46175,-0.21167 0.19424,-0.3143 0.52916,-0.25621 0.52916,0.0918 0,0.17001 -0.24591,0.33289 -0.55925,0.37041 -0.7956,0.0953 -1.05416,0.88773 -0.47774,1.46416 0.2391,0.23909 0.57803,0.37973 0.75317,0.31252 0.17514,-0.0672 0.50116,-0.1222 0.72447,-0.1222 z m -1.13977,-0.42802 c -0.37508,-0.53551 -0.24742,-1.10462 0.22682,-1.01112 0.5774,0.11384 0.82563,0.7532 0.44154,1.13728 -0.31367,0.31367 -0.36739,0.30353 -0.66836,-0.12616 z m 2.180793,0.42802 c 0,-0.11642 -0.10087,-0.21167 -0.224163,-0.21167 -0.12329,0 -0.16529,0.0953 -0.0933,0.21167 0.0719,0.11641 0.17282,0.21166 0.224163,0.21166 0.0513,0 0.0933,-0.0953 0.0933,-0.21166 z m 2.65545,-0.30788 c 0.64076,-0.64075 0.65661,-1.10644 0.0593,-1.74223 -0.57771,-0.61495 -1.37766,-0.62674 -2.01321,-0.0297 -0.61328,0.57614 -0.62305,1.16991 -0.0297,1.80154 0.59511,0.63347 1.33144,0.62246 1.98355,-0.0297 z m -1.25473,-0.015 c -0.88107,-0.88106 -0.49866,-2.33057 0.47709,-1.80837 0.77811,0.41644 0.83892,1.82537 0.0896,2.07516 -0.12369,0.0412 -0.37868,-0.0788 -0.56664,-0.26679 z m 3.0727,-0.68256 c -0.0606,-1.1265 0.12736,-1.37118 0.60826,-0.79173 0.1643,0.19797 0.22208,0.64086 0.15189,1.16417 -0.10609,0.79097 -0.0795,0.84464 0.41838,0.84464 0.39786,0 0.49934,-0.0843 0.4032,-0.33481 -0.0707,-0.18415 -0.12848,-0.59457 -0.12848,-0.91205 0,-0.82293 -0.40375,-1.22434 -1.37584,-1.36787 l -0.84666,-0.12502 v 1.37766 c 0,1.24746 0.0392,1.37192 0.41452,1.31696 0.36036,-0.0528 0.40672,-0.20593 0.35473,-1.17196 z m 2.85554,0.55562 c -0.0728,-0.3638 -0.13229,-1.22105 -0.13229,-1.905 0,-0.85386 -0.0829,-1.24346 -0.26459,-1.24328 -0.19204,1.9e-4 -0.26458,0.52248 -0.26458,1.90508 0,1.72141 0.0382,1.90482 0.39687,1.90474 0.33161,-7e-5 0.37512,-0.10887 0.26459,-0.66154 z m 1.47785,0.32665 c -0.0707,-0.18415 -0.12848,-0.80327 -0.12848,-1.37583 0,-0.85031 -0.0679,-1.04104 -0.37041,-1.0411 -0.318,-7e-5 -0.36416,0.18715 -0.32618,1.32291 0.0243,0.72765 0.0481,1.34681 0.0529,1.37591 0.005,0.0291 0.20936,0.0529 0.45465,0.0529 0.31971,0 0.40961,-0.0948 0.3175,-0.33481 z m 1.39558,-0.85026 c -0.089,-1.07329 -0.0607,-1.17775 0.30008,-1.10751 0.32338,0.063 0.40162,0.27608 0.41568,1.13215 0.0152,0.9243 0.0759,1.06321 0.49173,1.12427 0.45216,0.0664 0.46747,0.0217 0.3264,-0.9525 -0.17398,-1.20152 -0.40463,-1.55135 -1.02284,-1.55135 -0.26101,0 -0.54163,-0.19607 -0.662,-0.46255 -0.11492,-0.25441 -0.35182,-0.49806 -0.52644,-0.54145 -0.21677,-0.0539 -0.19998,-0.005 0.0529,0.15557 0.42979,0.27206 0.49041,0.63677 0.10583,0.63677 -0.18453,0 -0.26458,0.41628 -0.26458,1.37583 0,1.25284 0.0394,1.37583 0.44074,1.37583 0.40578,0 0.43295,-0.094 0.34248,-1.18506 z m 4.29678,0.76173 c 0.21726,-0.24007 0.27727,-0.42333 0.13864,-0.42333 -0.13447,0 -0.24448,0.0982 -0.24448,0.21831 0,0.41178 -0.65083,0.46797 -1.06622,0.092 -0.7221,-0.65349 -0.52361,-0.94536 0.64289,-0.94536 0.58208,0 1.05833,-0.0952 1.05833,-0.21167 0,-0.4046 -0.84985,-1.05833 -1.37583,-1.05833 -0.29104,0 -0.71967,0.1905 -0.9525,0.42333 -0.82575,0.82576 -0.23223,2.32833 0.91969,2.32833 0.273,0 0.66876,-0.1905 0.87948,-0.42333 z m -1.5875,-1.69333 c 0.1246,-0.23284 0.35132,-0.42334 0.5038,-0.42334 0.15249,0 0.44965,0.1905 0.66036,0.42334 0.37732,0.41693 0.36971,0.42333 -0.50381,0.42333 -0.82132,0 -0.87016,-0.0313 -0.66035,-0.42333 z m -20.604703,1.09458 c -0.42887,-0.47389 -0.46926,-1.51792 -0.0587,-1.51792 0.46527,0 0.82533,0.58673 0.71482,1.16481 -0.0841,0.4398 -0.0498,0.48911 0.19746,0.28391 0.16457,-0.13657 0.27058,-0.49459 0.23559,-0.7956 -0.0351,-0.30214 0.0784,-0.65804 0.25355,-0.79456 0.44769,-0.34904 0.15281,-0.54919 -0.44857,-0.30446 -0.27698,0.11272 -0.75503,0.25833 -1.06234,0.3236 -0.96178,0.20424 -1.03716,1.44227 -0.11056,1.81593 0.6534,0.26348 0.66794,0.25432 0.27877,-0.17571 z m -4.68948,-2.38222 c 0,-0.17115 -0.254505,-0.32906 -0.592945,-0.36789 -0.5814,-0.0667 -0.58561,-0.0594 -0.21624,0.37194 0.4086,0.47721 0.809185,0.4752 0.809185,-0.004 z m 21.117563,0.0176 c 0.34789,-0.40631 0.34219,-0.42334 -0.14198,-0.42334 -0.48434,0 -0.86878,0.45707 -0.60571,0.72014 0.20973,0.20973 0.36767,0.14704 0.74769,-0.2968 z"
       style="fill:#000000;stroke-width:0.211667"
       id="path1037" /></g></svg>
