<?xml version="1.0" encoding="UTF-8" standalone="no"?>
<!-- Created with Inkscape (http://www.inkscape.org/) -->

<svg
   width="22.860003mm"
   height="33.655006mm"
   viewBox="0 0 22.860003 33.655006"
   version="1.1"
   id="svg5"
   xml:space="preserve"
   xmlns="http://www.w3.org/2000/svg"
   xmlns:svg="http://www.w3.org/2000/svg"><defs
     id="defs2" /><g
     id="layer1"
     transform="translate(-22.01689,-123.37946)"><path
       style="fill:#000000;stroke-width:0.211667"
       d="m 22.367196,156.64737 c -0.319467,-0.35301 -0.350307,-1.79714 -0.350307,-16.40417 0,-15.73486 0.0075,-16.02455 0.423334,-16.44042 0.411941,-0.41194 0.705555,-0.42333 10.910454,-0.42333 H 43.8378 l 0.519544,0.51954 0.519546,0.51955 v 15.83752 c 0,13.99162 -0.0384,15.89236 -0.329501,16.30796 l -0.329504,0.47043 H 33.467692 c -10.145795,0 -10.769886,-0.0218 -11.100496,-0.38708 z m 11.271955,-4.5096 c 2.047966,-1.17976 3.89026,-2.2899 4.093989,-2.46697 0.332592,-0.28909 0.370417,-0.8162 0.370417,-5.16203 v -4.84006 l -0.525888,-0.23962 c -0.473003,-0.21551 -0.840198,-0.0589 -3.65125,1.55758 l -3.125363,1.79719 -0.105833,-5.73346 c -0.05821,-3.1534 -0.180797,-5.84912 -0.272419,-5.9905 -0.236197,-0.36446 -4.234745,-2.60045 -4.650306,-2.60045 -0.189715,0 -0.493213,0.21169 -0.67444,0.47043 -0.287926,0.41107 -0.329502,1.85331 -0.329502,11.43 0,10.67735 0.0109,10.97047 0.423334,11.3829 0.514925,0.51493 0.800326,0.53089 1.30625,0.073 0.364739,-0.33008 0.387083,-0.93568 0.387083,-10.49104 v -10.14073 l 0.846667,0.47585 0.846666,0.47585 v 6.34728 c 0,5.60917 0.04074,6.39228 0.350307,6.73436 0.192667,0.21289 0.50223,0.38486 0.687916,0.38214 0.185685,-0.003 1.718736,-0.80079 3.406778,-1.77349 l 3.069166,-1.76854 0.05878,3.07995 c 0.03233,1.69397 -0.01528,3.15172 -0.105833,3.23945 -0.09054,0.0877 -1.33143,0.82823 -2.757534,1.64558 l -2.592917,1.48607 v -1.00306 -1.00306 l 1.42875,-0.82055 c 0.785813,-0.4513 1.595438,-0.9621 1.799167,-1.13512 0.680443,-0.57786 0.346134,-1.73062 -0.501889,-1.73062 -0.489103,0 -4.006108,2.02376 -4.472278,2.57345 -0.529791,0.6247 -0.545501,4.92558 -0.02011,5.50613 0.192667,0.2129 0.493498,0.38708 0.668511,0.38708 0.175014,0 1.993813,-0.96525 4.041777,-2.14501 z m 5.664795,1.06823 c 2.905368,-1.67407 2.609611,-0.7026 2.609611,-8.57174 0,-5.77227 -0.04893,-6.88017 -0.315659,-7.1469 -0.542194,-0.54219 -4.052075,-2.46625 -4.49896,-2.46625 -0.56101,0 -0.949689,0.49371 -0.863712,1.09711 0.05122,0.35946 0.549474,0.76066 1.920272,1.54623 l 1.851109,1.06083 -0.05194,5.92022 -0.05194,5.92023 -1.502369,0.85311 c -0.826303,0.46921 -1.65974,0.98383 -1.852084,1.14361 -0.665772,0.55304 -0.311179,1.72033 0.522593,1.72033 0.20037,0 1.205257,-0.48455 2.233083,-1.07678 z m -5.128224,-14.63367 c 0.271877,-0.38816 0.328955,-1.21179 0.326381,-4.70958 -0.0022,-2.94622 -0.08287,-4.39258 -0.264583,-4.7422 -0.317739,-0.61133 -4.004439,-2.77779 -4.726995,-2.77779 -0.346594,0 -0.597273,0.17462 -0.758423,0.52831 -0.318734,0.69954 0.03734,1.08627 2.072164,2.2505 l 1.56429,0.89502 v 4.25909 c 0,3.0304 0.07328,4.33236 0.254001,4.51308 0.404135,0.40414 1.174692,0.29536 1.533165,-0.21643 z"
       id="path1198" /></g></svg>
